<?xml version="1.0" encoding="utf-8"?>
<!-- Generator: Adobe Illustrator 26.1.0, SVG Export Plug-In . SVG Version: 6.00 Build 0)  -->
<svg version="1.1" id="Layer_1" xmlns="http://www.w3.org/2000/svg" xmlns:xlink="http://www.w3.org/1999/xlink" x="0px" y="0px"
	 viewBox="0 0 568 143.9" style="enable-background:new 0 0 568 143.9;" xml:space="preserve">
<style type="text/css">
	.st0{fill:#727272;}
	.st1{fill:#FF6200;}
	.st2{fill-rule:evenodd;clip-rule:evenodd;fill:#009AF9;}
</style>
<path class="st0" d="M366.6,62.5c0-0.7,0,0,0-0.6c0,0,0-2.2,0-2.7"/>
<path class="st0" d="M349.2,28.7c-3.7-3.7-9.8-3.7-13.5,0l-22.2,22.2l-22.2-22.2c-3.7-3.7-9.8-3.7-13.5,0s-3.7,9.8,0,13.5L300,64.4
	l-22.2,22.2c-3.7,3.7-3.7,9.8,0,13.5s9.8,3.7,13.5,0l22.2-22.2l22.2,22.2c3.7,3.7,9.8,3.7,13.5,0s3.7-9.8,0-13.5L327,64.4l22.2-22.2
	C352.9,38.5,352.9,32.4,349.2,28.7z"/>
<path class="st0" d="M187.3,25.1c-21.4,0-39,17.6-39,38.9c0,23.5,0,46.9,0,70.4c0,5.2,4.3,9.5,9.6,9.5c5.3,0,9.6-4.3,9.6-9.5V97.5
	c5.8,3.5,12.6,5.4,19.9,5.4c21.5,0,39-17.4,39-38.9C226.2,42.7,208.7,25.1,187.3,25.1z M187.3,83.5c-10.8,0-19.5-8.7-19.5-19.5
	s8.7-19.5,19.5-19.5c10.8,0,19.5,8.7,19.5,19.5S198.1,83.5,187.3,83.5z"/>
<path class="st0" d="M424,25.5c-5.3,0-9.6,4.3-9.6,9.5v0.2v34.5c0,8.7-7.1,15.8-15.9,15.8c-8.7,0-15.9-7.1-15.9-15.8V35.2V35
	c0-5.3-4.3-9.5-9.6-9.5c-5.3,0-9.6,4.3-9.6,9.5v33.4c0,19.2,15.7,34.9,35,34.9s35-15.7,35-34.9V35C433.5,29.7,429.2,25.5,424,25.5z"
	/>
<path class="st0" d="M567.9,61c0-17.7-12.9-33-30.4-35.2c-11.8-1.5-22.6,3-30,10.8l0,0c-6.4-6.8-15.4-11.1-25.4-11.1l0,0
	c-19.2,0-35,15.7-35,34.9v33.1c0,4.8,3.4,9,8.1,9.8c5.9,0.9,11-3.7,11-9.4V59.1c0-8.7,7.1-15.8,15.9-15.8l0,0
	c8.7,0,15.9,7.1,15.9,15.8v34.7c0,3.8,2.2,7.4,5.7,8.8c6.8,2.7,13.4-2.3,13.4-8.8V59.5c0-7.5,6-14.9,13.4-16
	c9.8-1.5,18.3,6.2,18.3,15.7v34.7c0,5.3,4.3,9.5,9.6,9.5l0,0c5.3,0,9.6-4.3,9.6-9.5L567.9,61L567.9,61z"/>
<path class="st0" d="M247,57.1c-2.2,0-4.2-0.4-6.2-1.1v37.3c0,5.3,4.3,9.5,9.6,9.5s9.6-4.3,9.6-9.5V51.9
	C256.6,55.1,252.1,57.1,247,57.1z"/>
<g>
	<ellipse class="st1" cx="250.6" cy="34.8" rx="11.7" ry="11.7"/>
</g>
<path class="st0" d="M364.2,62.1c0-0.7,0,0,0-0.6c0,0,0-2.2,0-2.7"/>
<path class="st2" d="M119.9,56h-16.7c-3.2,0-6-2.3-7.2-5.2c-1.3-3-0.9-6.6,1.4-8.9l11.8-11.8c3.1-3.1,3.1-8.2,0-11.3
	s-8.2-3.1-11.3,0L85.6,31.1c-2.2,2.2-5.5,2.5-8.3,1.4c-3-1.2-5.3-3.9-5.3-7V8c0-4.4-3.6-8-8-8s-8,3.6-8,8v18.5c0,2.9-2,5.4-4.6,6.6
	c-2.8,1.2-6,0.9-8.2-1.2L30,18.8c-3.1-3.1-8.2-3.1-11.3,0s-3.1,8.2,0,11.3l13.6,13.6c2,2,2.3,5,1.3,7.6C32.5,54,30.1,56,27.2,56H8
	c-4.4,0-8,3.6-8,8s3.6,8,8,8h19.3c2.9,0,5.3,2,6.4,4.7c1.1,2.6,0.7,5.6-1.3,7.6L18.8,97.9c-3.1,3.1-3.1,8.2,0,11.3s8.2,3.1,11.3,0
	l13.1-13.1c2.1-2.1,5.4-2.4,8.2-1.2c2.6,1.2,4.6,3.7,4.6,6.6V120c0,4.4,3.6,8,8,8s8-3.6,8-8v-17.5c0-3.2,2.3-5.9,5.3-7
	c2.8-1.1,6.1-0.7,8.3,1.4l12.3,12.3c3.1,3.1,8.2,3.1,11.3,0s3.1-8.2,0-11.3L97.4,86.1c-2.3-2.3-2.6-5.9-1.4-8.9c1.3-3,4-5.2,7.2-5.2
	h16.7c4.4,0,8-3.6,8-8S124.3,56,119.9,56z M83.4,64c0,10.8-8.7,19.5-19.5,19.5S44.4,74.8,44.4,64s8.8-19.5,19.5-19.5
	S83.4,53.3,83.4,64z"/>
</svg>
